# xmcd
#
# Track frame offsets:
#	150
#	22860
#	54107
#	78446
#	116581
#	137292
#	156548
#	181700
#	201802
#	224425
#
# Disc length: 3264 seconds
#
# Revision: 0
# Processed by: cddbd v1.4PL0 Copyright (c) Steve Scherf et al.
# Submitted via: EasyCDDAExtractor 4.6.9.1
#
DISCID=7a0cbe0a
DTITLE=Peter Gabriel - Pavillion Of Memories Cd1
DYEAR=1900
DGENRE=
TTITLE0=Intruder
TTITLE1=I Don't Remember
TTITLE2=Solsbury Hill
TTITLE3=Family Snapshot
TTITLE4=Migram's 37
TTITLE5=Modern Love
TTITLE6=Not One Of Us
TTITLE7=Lead A Normal Life
TTITLE8=Moribund The Burgermeister
TTITLE9=Mother Of Violence
EXTD=
EXTT0=
EXTT1=
EXTT2=
EXTT3=
EXTT4=
EXTT5=
EXTT6=
EXTT7=
EXTT8=
EXTT9=
PLAYORDER=
